HIERARCHY
ROOT hip
{
  OFFSET 0 0 0
  CHANNELS 6 Xposition Yposition Zposition Zrotation Yrotation Xrotation
  JOINT abdomen
  {
    OFFSET 0 20.6881 -0.73152
    CHANNELS 3 Zrotation Xrotation Yrotation
    JOINT chest
    {
      OFFSET 0 11.7043 -0.48768
      CHANNELS 3 Zrotation Xrotation Yrotation
      JOINT neck
      {
        OFFSET 0 22.1894 -2.19456
        CHANNELS 3 Zrotation Xrotation Yrotation
        JOINT head
        {
          OFFSET -0.24384 7.07133 1.2192
          CHANNELS 3 Zrotation Xrotation Yrotation
          JOINT leftEye
          {
            OFFSET 4.14528 8.04674 8.04672
            CHANNELS 3 Zrotation Xrotation Yrotation
            End Site
            {
              OFFSET 1 0 0
            }
          }
          JOINT rightEye
          {
            OFFSET -3.6576 8.04674 8.04672
            CHANNELS 3 Zrotation Xrotation Yrotation
            End Site
            {
              OFFSET 1 0 0
            }
          }
        }
      }
      JOINT rCollar
      {
        OFFSET -2.68224 19.2634 -4.8768
        CHANNELS 3 Zrotation Xrotation Yrotation
        JOINT rShldr
        {
          OFFSET -8.77824 -1.95073 1.46304
          CHANNELS 3 Zrotation Xrotation Yrotation
          JOINT rForeArm
          {
            OFFSET -28.1742 -1.7115 0.48768
            CHANNELS 3 Zrotation Xrotation Yrotation
            JOINT rHand
            {
              OFFSET -22.5879 0.773209 7.07136
              CHANNELS 3 Zrotation Xrotation Yrotation
              JOINT rThumb1
              {
                OFFSET -1.2192 -0.487915 3.41376
                CHANNELS 3 Zrotation Xrotation Yrotation
                JOINT rThumb2
                {
                  OFFSET -3.37035 -0.52449 3.41376
                  CHANNELS 3 Zrotation Xrotation Yrotation
                  End Site
                  {
                    OFFSET -1.78271 -1.18214 1.43049
                  }
                }
              }
              JOINT rIndex1
              {
                OFFSET -7.75947 0.938293 5.60832
                CHANNELS 3 Zrotation Xrotation Yrotation
                JOINT rIndex2
                {
                  OFFSET -2.54057 -0.884171 1.56538
                  CHANNELS 3 Zrotation Xrotation Yrotation
                  End Site
                  {
                    OFFSET -1.62519 -0.234802 1.16502
                  }
                }
              }
              JOINT rMid1
              {
                OFFSET -8.24714 1.18213 3.41376
                CHANNELS 3 Zrotation Xrotation Yrotation
                JOINT rMid2
                {
                  OFFSET -3.10165 -0.590103 1.0647
                  CHANNELS 3 Zrotation Xrotation Yrotation
                  End Site
                  {
                    OFFSET -2.48547 -0.328903 0.83742
                  }
                }
              }
              JOINT rRing1
              {
                OFFSET -8.82822 0.546677 1.51678
                CHANNELS 3 Zrotation Xrotation Yrotation
                JOINT rRing2
                {
                  OFFSET -2.60934 -0.819778 -0.0198488
                  CHANNELS 3 Zrotation Xrotation Yrotation
                  End Site
                  {
                    OFFSET -2.33842 -0.294052 0.168128
                  }
                }
              }
              JOINT rPinky1
              {
                OFFSET -8.27202 -0.0477905 -0.4584
                CHANNELS 3 Zrotation Xrotation Yrotation
                JOINT rPinky2
                {
                  OFFSET -1.82734 -0.647385 -0.700984
                  CHANNELS 3 Zrotation Xrotation Yrotation
                  End Site
                  {
                    OFFSET -1.69225 -0.51767 -0.607171
                  }
                }
              }
            }
          }
        }
      }
      JOINT lCollar
      {
        OFFSET 2.68224 19.2634 -4.8768
        CHANNELS 3 Zrotation Xrotation Yrotation
        JOINT lShldr
        {
          OFFSET 8.77824 -1.95073 1.46304
          CHANNELS 3 Zrotation Xrotation Yrotation
          JOINT lForeArm
          {
            OFFSET 28.1742 -1.7115 0.48768
            CHANNELS 3 Zrotation Xrotation Yrotation
            JOINT lHand
            {
              OFFSET 22.5879 0.773209 7.07136
              CHANNELS 3 Zrotation Xrotation Yrotation
              JOINT lThumb1
              {
                OFFSET 1.2192 -0.487915 3.41376
                CHANNELS 3 Zrotation Xrotation Yrotation
                JOINT lThumb2
                {
                  OFFSET 3.37035 -0.52449 3.41376
                  CHANNELS 3 Zrotation Xrotation Yrotation
                  End Site
                  {
                    OFFSET 1.78271 -1.18214 1.43049
                  }
                }
              }
              JOINT lIndex1
              {
                OFFSET 7.75947 0.938293 5.60832
                CHANNELS 3 Zrotation Xrotation Yrotation
                JOINT lIndex2
                {
                  OFFSET 2.54057 -0.884171 1.56538
                  CHANNELS 3 Zrotation Xrotation Yrotation
                  End Site
                  {
                    OFFSET 1.62519 -0.234802 1.16502
                  }
                }
              }
              JOINT lMid1
              {
                OFFSET 8.24714 1.18213 3.41376
                CHANNELS 3 Zrotation Xrotation Yrotation
                JOINT lMid2
                {
                  OFFSET 3.10165 -0.590103 1.0647
                  CHANNELS 3 Zrotation Xrotation Yrotation
                  End Site
                  {
                    OFFSET 2.48547 -0.328903 0.83742
                  }
                }
              }
              JOINT lRing1
              {
                OFFSET 8.82822 0.546677 1.51678
                CHANNELS 3 Zrotation Xrotation Yrotation
                JOINT lRing2
                {
                  OFFSET 2.60934 -0.819778 -0.0198488
                  CHANNELS 3 Zrotation Xrotation Yrotation
                  End Site
                  {
                    OFFSET 2.33842 -0.294052 0.168128
                  }
                }
              }
              JOINT lPinky1
              {
                OFFSET 8.27202 -0.0477905 -0.4584
                CHANNELS 3 Zrotation Xrotation Yrotation
                JOINT lPinky2
                {
                  OFFSET 1.82734 -0.647385 -0.700984
                  CHANNELS 3 Zrotation Xrotation Yrotation
                  End Site
                  {
                    OFFSET 1.69225 -0.51767 -0.607171
                  }
                }
              }
            }
          }
        }
      }
    }
  }
  JOINT rButtock
  {
    OFFSET -8.77824 4.35084 1.2192
    CHANNELS 3 Zrotation Xrotation Yrotation
    JOINT rThigh
    {
      OFFSET 0 -1.70687 -2.19456
      CHANNELS 3 Zrotation Xrotation Yrotation
      JOINT rShin
      {
        OFFSET 0 -36.8199 0.73152
        CHANNELS 3 Zrotation Xrotation Yrotation
        JOINT rFoot
        {
          OFFSET 0.73152 -45.1104 -5.12064
          CHANNELS 3 Zrotation Xrotation Yrotation
          End Site
          {
            OFFSET -1.1221 -3.69964 12.103
          }
        }
      }
    }
  }
  JOINT lButtock
  {
    OFFSET 8.77824 4.35084 1.2192
    CHANNELS 3 Zrotation Xrotation Yrotation
    JOINT lThigh
    {
      OFFSET 0 -1.70687 -2.19456
      CHANNELS 3 Zrotation Xrotation Yrotation
      JOINT lShin
      {
        OFFSET 0 -36.8199 0.73152
        CHANNELS 3 Zrotation Xrotation Yrotation
        JOINT lFoot
        {
          OFFSET -0.73152 -45.1104 -5.12064
          CHANNELS 3 Zrotation Xrotation Yrotation
          End Site
          {
            OFFSET 1.1221 -3.69964 12.103
          }
        }
      }
    }
  }
}
MOTION
Frames:	7
Frame Time:	0.00833333
-81.0057 76.9251 13.8208 -56.6027 -101.524 59.5709 5.12346 22.22 1.01635 -5.00179 -4.70983 0.172945 -1.70291 21.2367 -4.73822 -4.01934 -23.1019 -10.4951 -0.0 0.0 0.0 -0.0 0.0 0.0 -1.96908e-13 2.88268e-12 -2.80712e-13 58.9108 28.0055 6.35314 -17.6072 -10.2691 33.149 -1.34768 31.0334 4.85068 8.12908e-10 2.40727e-10 7.96443e-10 1.41865e-09 4.24959e-10 1.35098e-09 8.1292e-10 2.40727e-10 7.9643e-10 7.73091 5.47488 0.417314 8.12908e-10 2.40726e-10 7.96442e-10 2.90554 0.965183 0.102902 8.12915e-10 2.40727e-10 7.96439e-10 10.2786 0.731801 0.0259123 8.12907e-10 2.4073e-10 7.96442e-10 2.22167 -0.733487 -0.20892 -1.96897e-13 2.88268e-12 -2.80926e-13 -76.7883 5.88918 22.1363 22.7323 -16.8951 -45.8246 0.0608181 7.02957 -0.992957 2.42541e-09 -3.4218e-09 2.09638e-12 4.19692e-09 -5.95687e-09 -1.77425e-11 2.4254e-09 -3.4218e-09 2.10854e-12 -7.73091 5.47488 -0.417314 2.42541e-09 -3.42181e-09 2.08683e-12 -2.90554 0.965183 -0.102902 2.4254e-09 -3.4218e-09 2.0921e-12 -10.2786 0.731801 -0.0259123 2.42541e-09 -3.4218e-09 2.08489e-12 -2.22167 -0.733487 0.20892 -2.03217e-16 0.0 -3.88251e-19 -17.1496 -38.8747 8.56934 -1.02682 60.1953 1.68589 -7.73008 -17.2958 -16.2794 2.03217e-16 0.0 3.88251e-19 -7.01105 -34.1897 5.89643 0.802894 54.1619 -0.996482 -5.44232 -7.87161 -20.9079
-81.6129 76.9783 13.6327 -57.6153 -101.43 59.4849 4.7528 22.2057 0.471966 -4.95073 -4.44565 0.0112755 -2.00596 22.3578 -6.06444 -3.65004 -25.7056 -13.0977 -0.0 0.0 0.0 -0.0 0.0 0.0 -8.3377e-14 4.37387e-12 -3.94873e-13 60.3988 27.9776 5.1472 -17.5042 -10.1629 32.9187 -1.33196 30.8744 4.82016 1.00225e-09 2.84117e-10 6.43658e-10 1.74279e-09 5.02154e-10 1.08363e-09 1.00226e-09 2.84121e-10 6.43644e-10 7.73091 5.47488 0.417314 1.00225e-09 2.84118e-10 6.43658e-10 2.90554 0.965183 0.102902 1.00226e-09 2.84119e-10 6.43652e-10 10.2786 0.731801 0.0259123 1.00225e-09 2.84119e-10 6.43655e-10 2.22167 -0.733487 -0.20892 -8.33343e-14 4.37387e-12 -3.95042e-13 -76.8486 5.66708 22.5011 22.4249 -16.4045 -44.968 0.0562121 6.75812 -0.954249 1.86898e-09 -4.39623e-09 -8.51566e-10 3.23045e-09 -7.63279e-09 -1.4913e-09 1.86897e-09 -4.39624e-09 -8.51555e-10 -7.73091 5.47488 -0.417314 1.86898e-09 -4.39625e-09 -8.5158e-10 -2.90554 0.965183 -0.102902 1.86897e-09 -4.39624e-09 -8.5157e-10 -10.2786 0.731801 -0.0259123 1.86899e-09 -4.39623e-09 -8.51574e-10 -2.22167 -0.733487 0.20892 -2.03217e-16 0.0 -3.88251e-19 -16.7754 -37.3864 8.97824 -1.03508 60.3519 1.70253 -8.00693 -17.4405 -16.7817 2.03217e-16 0.0 3.88251e-19 -6.958 -32.6072 5.90384 0.798153 54.0695 -0.994693 -5.44201 -7.59072 -21.2589
-82.2219 77.0169 13.4352 -59.2375 -101.471 59.9546 4.40853 22.254 -0.226511 -4.78958 -4.13106 -0.191139 -2.25872 23.3822 -7.34054 -3.49256 -28.1675 -15.6603 -0.0 0.0 0.0 -0.0 0.0 0.0 -3.20648e-15 5.03897e-12 -4.44383e-13 61.6344 28.141 4.1837 -17.3994 -10.0552 32.6863 -1.31041 30.6559 4.77832 1.06119e-09 2.72427e-10 5.11058e-10 1.84201e-09 4.82662e-10 8.5414e-10 1.06121e-09 2.72434e-10 5.11042e-10 7.73091 5.47488 0.417314 1.06119e-09 2.7243e-10 5.11058e-10 2.90554 0.965183 0.102902 1.0612e-09 2.72431e-10 5.11051e-10 10.2786 0.731801 0.0259123 1.06119e-09 2.72429e-10 5.11055e-10 2.22167 -0.733487 -0.20892 -3.15484e-15 5.03897e-12 -4.44532e-13 -77.0171 5.28997 22.727 22.0798 -15.8776 -44.0057 0.0528457 6.54608 -0.924056 1.31249e-09 -4.65923e-09 -1.3561e-09 2.26551e-09 -8.07921e-09 -2.36048e-09 1.31248e-09 -4.65923e-09 -1.35609e-09 -7.73091 5.47488 -0.417314 1.31249e-09 -4.65924e-09 -1.35612e-09 -2.90554 0.965183 -0.102902 1.31248e-09 -4.65923e-09 -1.3561e-09 -10.2786 0.731801 -0.0259123 1.31249e-09 -4.65923e-09 -1.35611e-09 -2.22167 -0.733487 0.20892 -2.03217e-16 0.0 -3.88251e-19 -16.4872 -35.9105 9.1088 -1.04351 60.5053 1.71825 -8.22602 -17.6288 -17.1312 2.03217e-16 0.0 3.88251e-19 -6.90821 -31.0593 5.7718 0.795496 54.0189 -0.993816 -5.47423 -7.58303 -21.3791
-82.8252 77.0652 13.1861 -60.9122 -101.449 60.4368 4.10309 22.3858 -1.17143 -4.46525 -3.72464 -0.457381 -2.49291 24.3336 -8.57062 -3.54398 -30.5887 -18.2087 -0.0 0.0 0.0 -0.0 0.0 0.0 3.81309e-14 4.37595e-12 -3.9145e-13 62.5118 28.5907 3.56552 -17.2873 -9.94043 32.4405 -1.27619 30.3049 4.71146 9.01989e-10 1.93227e-10 3.22193e-10 1.56303e-09 3.43252e-10 5.32617e-10 9.02005e-10 1.93235e-10 3.22177e-10 7.73091 5.47488 0.417314 9.01989e-10 1.9323e-10 3.22193e-10 2.90554 0.965183 0.102902 9.02e-10 1.93232e-10 3.22185e-10 10.2786 0.731801 0.0259123 9.01989e-10 1.93229e-10 3.22192e-10 2.22167 -0.733487 -0.20892 3.81552e-14 4.37596e-12 -3.9162e-13 -77.3448 4.64502 22.7666 21.6791 -15.2885 -42.9085 0.0499353 6.34612 -0.895627 6.40103e-10 -3.75076e-09 -1.33104e-09 1.10273e-09 -6.49964e-09 -2.31187e-09 6.40095e-10 -3.75077e-09 -1.33103e-09 -7.73091 5.47488 -0.417314 6.40105e-10 -3.75077e-09 -1.33105e-09 -2.90554 0.965183 -0.102902 6.40091e-10 -3.75077e-09 -1.33104e-09 -10.2786 0.731801 -0.0259123 6.40107e-10 -3.75076e-09 -1.33104e-09 -2.22167 -0.733487 0.20892 -2.03217e-16 0.0 -3.88251e-19 -16.2611 -34.3866 8.96521 -1.05109 60.6436 1.7328 -8.39233 -17.9103 -17.3129 2.03217e-16 0.0 3.88251e-19 -6.8762 -29.5234 5.46286 0.795602 54.0222 -0.993711 -5.55693 -7.96447 -21.1796
-83.3853 77.1028 12.8943 -62.7791 -101.206 61.138 3.82308 22.5624 -2.29177 -4.015 -3.26373 -0.768977 -2.72229 25.2596 -9.81608 -3.78809 -33.0224 -20.8911 -0.0 0.0 0.0 -0.0 0.0 0.0 6.32301e-14 2.85854e-12 -2.72512e-13 63.1663 29.2536 3.16524 -17.1785 -9.83007 32.202 -1.23453 29.8658 4.62866 5.49664e-10 8.14693e-11 1.37865e-11 9.4768e-10 1.44792e-10 9.35935e-12 5.49676e-10 8.14767e-11 1.37718e-11 7.73091 5.47488 0.417314 5.49662e-10 8.14723e-11 1.37867e-11 2.90554 0.965183 0.102902 5.49675e-10 8.1475e-11 1.37786e-11 10.2786 0.731801 0.0259123 5.49661e-10 8.14709e-11 1.37895e-11 2.22167 -0.733487 -0.20892 6.3201e-14 2.85855e-12 -2.72729e-13 -77.7963 3.82046 22.6682 21.2181 -14.631 -41.7004 0.0473487 6.15505 -0.868497 -9.35833e-11 -2.23439e-09 -1.03785e-09 -1.64854e-10 -3.86781e-09 -1.7982e-09 -9.35899e-11 -2.23439e-09 -1.03785e-09 -7.73091 5.47488 -0.417314 -9.35813e-11 -2.2344e-09 -1.03786e-09 -2.90554 0.965183 -0.102902 -9.35923e-11 -2.2344e-09 -1.03785e-09 -10.2786 0.731801 -0.0259123 -9.35778e-11 -2.23439e-09 -1.03786e-09 -2.22167 -0.733487 0.20892 -2.03217e-16 0.0 -3.88251e-19 -16.0271 -32.8379 8.61005 -1.058 60.7705 1.74641 -8.51311 -18.2638 -17.3573 2.03217e-16 0.0 3.88251e-19 -6.80939 -28.0132 5.00369 0.798055 54.0727 -0.994678 -5.66307 -8.61549 -20.7488
-83.8938 77.1237 12.5259 -64.1296 -100.857 61.3664 3.56378 22.7568 -3.43795 -3.52538 -2.81348 -1.08763 -2.89755 26.0743 -11.011 -4.17628 -35.1976 -23.5489 -0.0 0.0 0.0 -0.0 0.0 0.0 6.74579e-14 1.26099e-12 -1.45273e-13 63.7567 29.9875 2.83743 -17.0771 -9.72793 31.9806 -1.19816 29.4698 4.55482 1.82879e-10 -6.1091e-11 -1.94694e-10 3.09518e-10 -1.06098e-10 -3.41077e-10 1.82887e-10 -6.10842e-11 -1.94707e-10 7.73091 5.47488 0.417314 1.82876e-10 -6.10881e-11 -1.94693e-10 2.90554 0.965183 0.102902 1.8289e-10 -6.10848e-11 -1.94701e-10 10.2786 0.731801 0.0259123 1.82873e-10 -6.10894e-11 -1.94687e-10 2.22167 -0.733487 -0.20892 6.73721e-14 1.26101e-12 -1.45541e-13 -78.2924 3.00095 22.509 20.7163 -13.942 -40.4361 0.0462847 6.0818 -0.858088 -6.68897e-10 -7.22478e-10 -6.86481e-10 -1.15847e-09 -1.24553e-09 -1.18507e-09 -6.68903e-10 -7.22482e-10 -6.86483e-10 -7.73091 5.47488 -0.417314 -6.68896e-10 -7.22484e-10 -6.86485e-10 -2.90554 0.965183 -0.102902 -6.68904e-10 -7.22482e-10 -6.86488e-10 -10.2786 0.731801 -0.0259123 -6.68891e-10 -7.22478e-10 -6.86499e-10 -2.22167 -0.733487 0.20892 -2.03217e-16 0.0 -3.88251e-19 -15.7947 -31.3744 8.04287 -1.06638 60.9103 1.7594 -8.56612 -18.5971 -17.2742 2.03217e-16 0.0 3.88251e-19 -6.66688 -26.5639 4.47996 0.801633 54.1484 -0.996796 -5.76332 -9.36814 -20.2227
-84.3244 77.1578 11.9353 -62.6283 -100.104 58.8684 3.31631 22.9459 -4.45882 -3.08551 -2.43907 -1.37515 -2.98143 26.6956 -12.0833 -4.56712 -36.8797 -25.9549 -0.0 0.0 0.0 -0.0 0.0 0.0 4.61813e-14 3.57604e-13 -6.74377e-14 64.4444 30.6482 2.43504 -16.9874 -9.63796 31.7861 -1.17834 29.2478 4.51382 -1.9702e-11 -2.32699e-10 -8.3779e-11 -3.79082e-11 -4.02795e-10 -1.44136e-10 -1.96964e-11 -2.32693e-10 -8.37917e-11 7.73091 5.47488 0.417314 -1.97056e-11 -2.32696e-10 -8.3779e-11 2.90554 0.965183 0.102902 -1.9691e-11 -2.32692e-10 -8.37861e-11 10.2786 0.731801 0.0259123 -1.97093e-11 -2.32697e-10 -8.37694e-11 2.22167 -0.733487 -0.20892 4.60578e-14 3.57622e-13 -6.77359e-14 -78.7485 2.3734 22.3616 20.1999 -13.2653 -39.1675 0.0479221 6.23528 -0.879821 -8.6617e-10 1.72606e-10 -4.86889e-10 -1.49932e-09 3.05375e-10 -8.38124e-10 -8.66175e-10 1.72602e-10 -4.86892e-10 -7.73091 5.47488 -0.417314 -8.66169e-10 1.72602e-10 -4.86889e-10 -2.90554 0.965183 -0.102902 -8.66175e-10 1.72602e-10 -4.86896e-10 -10.2786 0.731801 -0.0259123 -8.66162e-10 1.72605e-10 -4.86908e-10 -2.22167 -0.733487 0.20892 -2.03217e-16 0.0 -3.88251e-19 -15.5793 -30.1053 7.25759 -1.0784 61.0873 1.77211 -8.52981 -18.8178 -17.073 2.03217e-16 0.0 3.88251e-19 -6.41934 -25.2124 3.97149 0.805117 54.2274 -1.00015 -5.83872 -10.051 -19.7357
